<?xml version="1.0" encoding="UTF-8"?>
<svg xmlns="http://www.w3.org/2000/svg" width="1280" height="800" viewBox="0 0 1280 800">
  <defs>
    <linearGradient id="bg-rytu" x1="0" y1="0" x2="1" y2="1">
      <stop offset="0%" stop-color="#0a0814"/>
      <stop offset="100%" stop-color="#7c3aed"/>
    </linearGradient>
    <radialGradient id="glow-rytu" cx="76%" cy="48%" r="46%">
      <stop offset="0%" stop-color="#c4b5fd" stop-opacity="0.24"/>
      <stop offset="100%" stop-color="#c4b5fd" stop-opacity="0"/>
    </radialGradient>
    <linearGradient id="bar-rytu" x1="0" y1="0" x2="1" y2="0">
      <stop offset="0%" stop-color="#8b5cf6"/>
      <stop offset="100%" stop-color="#c4b5fd"/>
    </linearGradient>
  </defs>

  <rect width="1280" height="800" fill="url(#bg-rytu)"/>
  <rect width="1280" height="800" fill="url(#glow-rytu)"/>

  <g opacity="0.5" transform="translate(880 300)">
    <rect x="0" y="0" width="152" height="220" rx="18" fill="none" stroke="#c4b5fd" stroke-width="2"/>
    <rect x="16" y="20" width="80" height="8" rx="4" fill="#c4b5fd" opacity="0.45"/>
    <rect x="16" y="36" width="52" height="6" rx="3" fill="#c4b5fd" opacity="0.22"/>
    <rect x="16" y="58" width="120" height="10" rx="5" fill="#c4b5fd" opacity="0.12"/>
    <rect x="16" y="58" width="88" height="10" rx="5" fill="url(#bar-rytu)" opacity="0.9"/>
    <circle cx="28" cy="92" r="9" fill="#a6c78c" opacity="0.85"/>
    <rect x="46" y="87" width="72" height="6" rx="3" fill="#c4b5fd" opacity="0.35"/>
    <circle cx="28" cy="118" r="9" fill="none" stroke="#c4b5fd" stroke-width="2" opacity="0.4"/>
    <rect x="46" y="113" width="58" height="6" rx="3" fill="#c4b5fd" opacity="0.22"/>
    <circle cx="28" cy="144" r="9" fill="none" stroke="#c4b5fd" stroke-width="2" opacity="0.3"/>
    <rect x="46" y="139" width="66" height="6" rx="3" fill="#c4b5fd" opacity="0.16"/>
    <rect x="16" y="168" width="120" height="36" rx="8" fill="#c4b5fd" opacity="0.1"/>
    <rect x="26" y="180" width="44" height="5" rx="2.5" fill="#c4b5fd" opacity="0.32"/>
    <rect x="26" y="192" width="64" height="5" rx="2.5" fill="#c4b5fd" opacity="0.18"/>
  </g>

  <rect x="72" y="72" width="68" height="26" rx="13" fill="#a6c78c"/>
  <text x="106" y="90" text-anchor="middle" font-family="system-ui,Segoe UI,sans-serif" font-size="10" font-weight="700" fill="#061008" letter-spacing="1.5">LIVE</text>

  <text x="72" y="248" font-family="system-ui,Segoe UI,sans-serif" font-size="56" font-weight="700" fill="#f8f6f2" letter-spacing="-2">RYTU</text>
  <text x="74" y="294" font-family="system-ui,Segoe UI,sans-serif" font-size="20" font-weight="500" fill="#c4b5fd" opacity="0.92">Life OS local-first</text>
  <rect x="72" y="316" width="88" height="3" rx="1.5" fill="#c4b5fd" opacity="0.75"/>
</svg>
